<?xml version="1.0" standalone="no"?>
<!DOCTYPE svg PUBLIC "-//W3C//DTD SVG 20010904//EN"
 "http://www.w3.org/TR/2001/REC-SVG-20010904/DTD/svg10.dtd">
<svg version="1.0" xmlns="http://www.w3.org/2000/svg"
 width="522.000000pt" height="522.000000pt" viewBox="0 0 522.000000 522.000000"
 preserveAspectRatio="xMidYMid meet">
<metadata>
Created by potrace 1.14, written by Peter Selinger 2001-2017
</metadata>
<g transform="translate(0.000000,522.000000) scale(0.100000,-0.100000)"
fill="#000000" stroke="none">
<path d="M2084 5123 c-88 -74 -122 -103 -304 -263 -204 -178 -196 -170 -175
-183 34 -20 306 -161 645 -334 696 -354 736 -377 773 -429 60 -85 42 -162 -59
-260 -109 -106 -221 -149 -373 -142 -96 5 -97 5 -271 88 -96 45 -377 184 -625
308 -247 124 -494 247 -547 273 l-98 48 -127 -106 c-160 -133 -330 -279 -406
-346 -46 -42 -55 -54 -44 -64 23 -23 1300 -659 1411 -702 60 -24 161 -56 224
-72 107 -27 126 -29 317 -29 221 0 316 12 457 56 337 107 848 507 981 769 105
208 65 428 -111 608 -112 115 -211 170 -1182 658 -157 79 -310 155 -341 170
l-56 27 -89 -75z"/>
<path d="M388 3573 c-3 -36 -2 -2243 1 -2336 1 -18 38 -37 369 -193 52 -24 98
-44 103 -44 5 0 9 10 10 23 4 99 8 413 9 855 1 287 5 524 9 527 4 2 13 -24 19
-58 6 -34 38 -215 71 -402 34 -187 67 -376 75 -420 8 -44 39 -215 68 -379 l53
-300 180 -86 c197 -95 251 -117 261 -107 7 6 19 62 144 660 104 500 131 621
142 632 6 7 9 7 8 0 -2 -5 -2 -334 -1 -731 l1 -720 68 -31 c37 -17 145 -68
240 -113 96 -45 177 -79 180 -75 8 8 10 2340 2 2374 -3 14 -13 28 -21 33 -14
8 -280 135 -409 196 -36 16 -118 55 -183 86 -65 31 -122 56 -126 56 -14 0 -31
-71 -172 -735 -28 -132 -52 -244 -53 -250 -1 -5 -8 -37 -15 -70 -17 -76 -26
-96 -35 -69 -3 10 -44 235 -90 499 -47 264 -88 496 -91 515 -3 19 -13 71 -21
115 -7 44 -19 112 -25 150 -7 39 -18 77 -26 86 -13 16 -167 95 -383 197 -58
27 -158 75 -223 106 -65 31 -122 56 -127 56 -4 0 -10 -21 -12 -47z"/>
<path d="M3250 3072 c-19 -11 -114 -60 -210 -109 -96 -50 -240 -125 -320 -167
-80 -42 -164 -87 -188 -99 l-43 -22 7 -1115 c8 -1293 8 -1287 15 -1294 6 -7
207 94 614 309 44 23 152 79 240 125 88 45 196 102 240 125 44 23 145 76 225
118 80 42 197 103 260 136 63 34 166 87 228 118 l112 58 1 40 c5 238 3 625 -5
625 -8 0 -391 -195 -481 -245 -159 -89 -583 -302 -610 -306 -25 -5 -22 -109
-25 870 -2 443 -5 815 -8 828 -5 28 -8 28 -52 5z"/>
<path d="M4026 2242 c-9 -9 5 -22 24 -22 23 0 30 -19 30 -83 0 -29 5 -59 10
-67 17 -26 30 8 30 83 0 65 1 67 25 67 28 0 35 19 8 21 -76 5 -123 6 -127 1z"/>
<path d="M4226 2234 c-9 -23 -7 -147 3 -162 11 -18 21 7 22 56 l0 37 24 -52
c13 -29 29 -53 35 -53 6 0 22 24 35 53 l24 52 0 -47 c1 -45 14 -71 23 -45 8
20 10 136 3 157 -10 32 -38 9 -59 -49 -10 -28 -22 -51 -26 -51 -5 0 -14 17
-20 38 -23 71 -51 100 -64 66z"/>
</g>
</svg>
